<?xml version="1.0" encoding="UTF-8"?>
<svg id="Layer_2" data-name="Layer 2" xmlns="http://www.w3.org/2000/svg" xmlns:xlink="http://www.w3.org/1999/xlink" viewBox="0 0 346.3 140.96">
  <defs>
    <style>
      .cls-1 {
        fill: url(#linear-gradient);
      }

      .cls-1, .cls-2, .cls-3, .cls-4 {
        stroke-width: 0px;
      }

      .cls-2 {
        fill: #eb5733;
      }

      .cls-4 {
        fill: #fff;
      }
    </style>
    <linearGradient id="linear-gradient" x1="154.36" y1="83.95" x2="154.36" y2="-44.29" gradientUnits="userSpaceOnUse">
      <stop offset="0" stop-color="#eb5733"/>
      <stop offset="1" stop-color="#eb5733"/>
    </linearGradient>
  </defs>
  <g id="Layer_1-2" data-name="Layer 1">
    <g>
      <path class="cls-2" d="M57.94,23.27c0,4.15-3.79,7.51-8.47,7.51s-8.47-3.36-8.47-7.51,3.79-7.51,8.47-7.51,8.47,3.36,8.47,7.51Z"/>
      <path class="cls-2" d="M101.32,10.24l-39.52,36.82h-.62c-2.19-1.71-4.92-2.72-7.91-2.72s-5.73,1.01-7.91,2.72h-.57l-10.1-10.17h12.3l4.91,4.84,36.6-31.49h12.84Z"/>
      <path class="cls-3" d="M72.58,80.88l-12.93.34-7.1-5.05-36.32,31.22H2.83l42.1-39.73h.49c2.17,1.67,4.9,2.67,7.85,2.67,2.28,0,4.41-.59,6.27-1.63l13.05,12.18Z"/>
      <path class="cls-3" d="M108.41,90.3l-.16,11.87-44.15-37.72c1.33-2.04,2.11-4.48,2.11-7.11,0-2.01-.46-3.92-1.27-5.62l14.27-11.73.23,11.47-5.78,6.24,34.75,32.6Z"/>
      <path class="cls-3" d="M43.05,65.31l-13.64,11.31-.28-11.48,5.75-6.25L0,26.41l.11-11.87,42.24,35.81c-1.29,2.02-2.03,4.42-2.03,6.99,0,3.01,1.02,5.77,2.72,7.97Z"/>
    </g>
    <g>
      <g>
        <path class="cls-1" d="M154.81,10.95c-.15-.01-.3-.01-.45-.01-.44,0-.87.01-1.3.02-6.93.24-13.34,2.38-18.67,5.89-1.28.84-2.49,1.76-3.64,2.75-.2.17-.41.36-.61.54-1.57,1.43-3,2.98-4.27,4.66-4.09,5.4-6.49,12.02-6.49,19.17s2.4,13.92,6.49,19.53c1.48,2.03,3.18,3.9,5.07,5.58,4.54,4.05,10.16,6.98,16.39,8.25,2.27.47,4.62.72,7.03.72,19.32,0,34.98-15.84,34.98-34.08s-15.42-32.8-34.53-33.02ZM152.78,28.94c5.71,1.53,9.91,6.75,9.91,12.94,0,3.72-1.52,7.09-3.96,9.53-2.31,2.31-5.44,3.79-8.92,3.94-.2.02-.4.02-.61.02h-11.44s-.02-.02-.02-.03v-26.55c.11-.1.23-.21.35-.31h11.2c.7,0,1.39.05,2.06.16.49.07.96.17,1.43.3Z"/>
        <path class="cls-2" d="M154.81,10.95l-.67,5.91-.34,3.02-1.02,9.06c-.47-.13-.94-.23-1.43-.3-.67-.11-1.36-.16-2.06-.16h-11.2c-.12.1-.24.21-.35.31v26.55s.01.03.02.03h11.44c.21,0,.41,0,.61-.02l-1.24,10.98-.31,2.75-.93,8.25v22.46h-30.52V11.24l36.25-.28h1.75Z"/>
      </g>
      <g>
        <path class="cls-2" d="M234.26,13.68h-22.3l-34.25,86.11h29.59l1.62-8.42h27.16l2.64,8.42h29.99L234.26,13.68ZM211.31,74.91l5.52-13.84,5.52-13.83,5.53,13.83,5.52,13.84h-22.09Z"/>
        <path class="cls-4" d="M224.05,20.92h-4.37l-26.22,71.74h3.64l2.5-6.87,45.56.13,2.56,6.74h3.66l-27.33-71.74ZM200.83,82.42l21.02-57.78,22.02,57.9-43.04-.12Z"/>
      </g>
      <g>
        <path class="cls-2" d="M343.03,25.44c-6.33-6.38-14.53-10.84-23.54-12.83-9.02-1.98-18.46-1.4-27.12,1.68-8.67,3.08-16.17,8.52-21.56,15.63-5.39,7.11-8.43,15.57-8.73,24.3-.3,8.74,2.15,17.37,7.04,24.79,4.89,7.42,12.01,13.31,20.44,16.92,8.44,3.61,17.82,4.77,26.95,3.34,9.14-1.43,17.62-5.38,24.38-11.36l-17.45-17.59c-3.07,2.72-6.93,4.52-11.09,5.17-4.16.65-8.42.12-12.26-1.52-3.84-1.64-7.07-4.32-9.3-7.7-2.22-3.38-3.34-7.3-3.2-11.28.14-3.97,1.52-7.82,3.97-11.05s5.87-5.71,9.81-7.11c3.94-1.4,8.23-1.67,12.34-.77,4.1.9,7.83,2.93,10.71,5.83l18.63-16.48Z"/>
        <path class="cls-4" d="M270.85,53.56c1.12-22.16,17.18-35.45,40.43-34.27,10.52.53,18.34,4.98,22.83,9.48l-2.88,2.2c-4.76-4.72-11.52-8.06-20.1-8.49-21.03-1.06-34.54,11.08-35.56,31.31s11.18,34.1,31.66,35.13c9.69.49,17.03-2.13,24.25-7.75l2.66,2.27c-7.23,5.83-15.45,9.26-27.35,8.66-22.41-1.13-37.04-16.39-35.93-38.55Z"/>
      </g>
      <path class="cls-4" d="M154.14,16.86c-.14-.01-.29-.01-.43-.01h-27.8s-.04,0-.04.02v79.75h4.85v-27.54h22.85c12.93,0,23.41-10.49,23.41-23.43v-5.53c0-12.72-10.19-23.04-22.84-23.26ZM166.62,59.45c-4.23,4.25-10.09,6.88-16.56,6.88h-19.88s-.04-.02-.04-.04V19.64s.02-.04.04-.04h20.04c1.22,0,2.41.09,3.58.28,11.15,1.71,19.7,11.37,19.7,23.01,0,6.46-2.63,12.33-6.88,16.56Z"/>
    </g>
  </g>
</svg>